<svg viewBox="0 0 24 24" fill="none" xmlns="http://www.w3.org/2000/svg">
<path d="M10.1665 21.9022C7.84476 21.5378 5.56352 20.4202 4.00848 18.8854C3.47569 18.3595 3.43927 18.3076 3.45642 18.0976C3.48828 17.7075 3.43013 17.7138 6.98871 17.714C10.5313 17.714 10.6981 17.7287 11.4291 18.1005C11.7345 18.2559 11.9955 18.4747 12.5115 19.0082C13.452 19.9804 13.9907 20.227 15.0225 20.1576C15.6386 20.1162 16.114 19.9338 16.5999 19.5526C18.1253 18.3556 18.1253 15.9318 16.5999 14.7348C16.0779 14.3252 15.6423 14.167 14.9332 14.1297C13.9321 14.0769 13.3736 14.3466 12.458 15.3249C12.0491 15.7618 11.7985 15.9708 11.4804 16.1401C10.7024 16.5543 10.8273 16.5438 6.6526 16.5438H2.86366L2.52755 16.3796C2.10792 16.1745 1.89097 15.9502 1.66513 15.488C1.21208 14.5606 1.00037 13.4768 1 12.0828C0.999609 10.6391 1.28851 9.17976 1.73179 8.3862C1.93859 8.01598 2.33458 7.70094 2.75902 7.56895C3.18116 7.43769 10.1586 7.44557 10.7019 7.57793C11.3888 7.74527 11.7868 8.00512 12.4888 8.74454C12.9931 9.27582 13.2167 9.46278 13.5334 9.6183C14.7074 10.1948 15.9648 9.96823 16.884 9.01457C17.5452 8.32868 17.7848 7.6561 17.729 6.64356C17.7016 6.14806 17.6688 6.02184 17.4468 5.55889C16.7715 4.15088 15.2237 3.49487 13.8332 4.02734C13.3099 4.22773 13.0553 4.42066 12.3971 5.11545C11.7578 5.79025 11.3333 6.06776 10.7148 6.215C10.5454 6.25535 9.16383 6.28065 7.0787 6.28161C3.34562 6.28332 3.44458 6.29413 3.44388 5.88493C3.44359 5.71455 3.52244 5.60501 3.95261 5.17816C5.16372 3.9764 6.87268 2.97953 8.60415 2.46482C9.64901 2.15422 10.4215 2.04102 11.7249 2.00753C13.1133 1.97185 13.9277 2.05834 15.1194 2.36803C18.5393 3.25682 21.2933 5.60754 22.4801 8.651C22.7276 9.28574 23 10.3016 23 10.59C23 10.9149 22.8201 11.2127 22.5463 11.3412C22.3107 11.4518 22.0379 11.4581 17.4999 11.4584C12.2197 11.4587 12.2173 11.4586 11.4499 11.0724C11.1458 10.9193 10.9018 10.7139 10.409 10.196C9.73955 9.49239 9.38402 9.24803 8.79151 9.08425C8.38185 8.97101 7.70716 8.97632 7.26128 9.09629C5.87257 9.46992 4.90505 11.0192 5.14385 12.4869C5.43295 14.2637 7.12291 15.4117 8.78937 14.9632C9.38392 14.8032 9.72805 14.5666 10.411 13.8485C10.9194 13.314 11.1363 13.1334 11.4553 12.9792C12.2411 12.5992 12.2329 12.5997 17.5305 12.5986C22.9666 12.5975 22.6695 12.5716 22.9035 13.067C23.009 13.2903 23.0138 13.359 22.9501 13.7428C22.7712 14.8206 22.1317 16.3376 21.4342 17.3384C19.7464 19.7605 16.9625 21.446 13.8865 21.9081C13.0536 22.0332 10.9805 22.0299 10.1665 21.9022Z" fill="#4AAA42"/>
</svg>
