<?xml version="1.0" encoding="UTF-8" standalone="no"?>
<svg
   viewBox="0 0 300 300"
   version="1.1"
   id="svg2"
   sodipodi:docname="bluos.svg"
   xml:space="preserve"
   inkscape:export-filename="bluos.svg"
   inkscape:export-xdpi="48"
   inkscape:export-ydpi="48"
   xmlns:inkscape="http://www.inkscape.org/namespaces/inkscape"
   xmlns:sodipodi="http://sodipodi.sourceforge.net/DTD/sodipodi-0.dtd"
   xmlns="http://www.w3.org/2000/svg"
   xmlns:svg="http://www.w3.org/2000/svg"><defs
     id="defs2" /><sodipodi:namedview
     id="namedview2"
     pagecolor="#ffffff"
     bordercolor="#000000"
     borderopacity="0.25"
     inkscape:showpageshadow="2"
     inkscape:pageopacity="0.0"
     inkscape:pagecheckerboard="0"
     inkscape:deskcolor="#d1d1d1"
     showguides="true"
     inkscape:zoom="3.9095958"
     inkscape:cx="289.92767"
     inkscape:cy="123.54218"
     inkscape:window-width="2880"
     inkscape:window-height="1715"
     inkscape:window-x="0"
     inkscape:window-y="0"
     inkscape:window-maximized="1"
     inkscape:current-layer="svg2" /><rect
     style="fill:#000000"
     id="rect3"
     width="300"
     height="300"
     x="0"
     y="0"
     inkscape:label="rect3" /><path
     fill="currentColor"
     d="m 169.36756,174.07934 -69.882704,0.025 a 37.862849,37.862849 0 0 0 -37.83788,37.81291 c 0,17.06283 0.0583,31.1043 0.0583,31.1043 v 6.85843 H 169.53407 l 1.58976,-0.0166 c 38.93656,-0.82401 67.22757,-29.77257 67.22757,-68.85895 a 72.68768,72.68768 0 0 0 -6.70028,-30.97112 72.995643,72.995643 0 0 0 6.70028,-30.9961 c 0,-39.078052 -28.29101,-68.026593 -67.28584,-68.875573 L 61.705276,50.120017 v 6.933321 c 0,0 -0.0583,13.991525 -0.0583,31.071007 a 37.854525,37.854525 0 0 0 37.83788,37.796255 l 69.907674,0.10821 c 19.76792,0 36.55609,8.72285 46.33601,24.0045 -9.80489,15.29829 -26.6097,24.04611 -46.36098,24.04611 m 1.82281,-62.02549 -71.705514,0.0166 A 23.971203,23.971203 0 0 1 75.521976,88.124269 V 63.978276 h 93.870554 c 31.91999,0 55.10048,23.155516 55.10048,55.058854 0,5.66819 -0.76575,11.14494 -2.25563,16.39697 -12.2353,-14.36608 -30.53831,-22.88917 -51.04701,-23.38025 m 51.04701,52.55354 c 1.48988,5.23537 2.25563,10.7371 2.25563,16.39696 0,31.8867 -23.18049,55.02557 -55.10048,55.02557 l -93.870554,0.0166 v -24.12935 a 23.98785,23.98785 0 0 1 23.96288,-23.96288 h 70.298874 l 2.39712,-0.12485 c 20.07588,-0.69916 37.9877,-9.05579 50.05653,-23.2221"
     id="path1"
     style="fill:#ffffff;stroke-width:8.32333" /></svg>
