<!-- Radio glyph: solar:radio-minimalistic-linear by 480 Design, CC BY 4.0 (https://creativecommons.org/licenses/by/4.0/) --><svg xmlns="http://www.w3.org/2000/svg" viewBox="-5 -5 34 34"><rect x="-5" y="-5" width="34" height="34" fill="#18bcf2"/><g fill="none" stroke="#ffffff" stroke-width="1.8"><path d="M2 14c0-3.771 0-5.657 1.172-6.828S6.229 6 10 6h4c3.771 0 5.657 0 6.828 1.172S22 10.229 22 14s0 5.657-1.172 6.828S17.771 22 14 22h-4c-3.771 0-5.657 0-6.828-1.172S2 17.771 2 14Z"/><circle cx="8" cy="14" r="3"/><path stroke-linecap="round" d="M13.5 11H19m-5.5 3H19m-5.5 3H19M6.5 6L15 2"/></g><path fill="#efb04d" d="M23 17.4Q23.55 21.45 27.6 22Q23.55 22.55 23 26.6Q22.45 22.55 18.4 22Q22.45 21.45 23 17.4ZM26.3 14.8Q26.54 16.56 28.3 16.8Q26.54 17.04 26.3 18.8Q26.06 17.04 24.3 16.8Q26.06 16.56 26.3 14.8ZM26.1 24.8Q26.29 26.21 27.7 26.4Q26.29 26.59 26.1 28Q25.91 26.59 24.5 26.4Q25.91 26.21 26.1 24.8Z"/><path fill="#f7d562" d="M23 18.32Q23.44 21.56 26.68 22Q23.44 22.44 23 25.68Q22.56 22.44 19.32 22Q22.56 21.56 23 18.32ZM26.3 15.2Q26.49 16.61 27.9 16.8Q26.49 16.99 26.3 18.4Q26.11 16.99 24.7 16.8Q26.11 16.61 26.3 15.2ZM26.1 25.12Q26.25 26.25 27.38 26.4Q26.25 26.55 26.1 27.68Q25.95 26.55 24.82 26.4Q25.95 26.25 26.1 25.12Z"/></svg>