<svg xmlns="http://www.w3.org/2000/svg" viewBox="0 0 197.97 197.97"><defs><style>.cls-1{fill:#9f27d6;}.cls-2{fill:#fff;}.cls-3{fill:#d290f4;}</style></defs><g id="Layer_2" data-name="Layer 2"><g id="Layer_1-2" data-name="Layer 1"><rect class="cls-1" width="197.97" height="197.97" rx="47.82"></rect><path class="cls-2" d="M53.08,87.46H31.43V79.77H67.27L43.33,113.22H65.92V121H29.13Z"></path><path class="cls-2" d="M122.06,96.73V121h-8.8V98.16c0-7.21-4-11.26-10.07-11.26-6,0-10.15,4-10.15,11.26V121H84.32V79.77H93V86c2.22-3.81,6.58-7,13.24-7C114.76,79,122.06,84.29,122.06,96.73Z"></path><path class="cls-2" d="M168.84,79.77v38.45c0,15.22-11.82,19.27-21.25,19.27-5.16,0-9.83-1.19-12.05-2.7v-7.21c1.9,1.26,5.94,2.53,10.54,2.53,8,0,14-3.65,14-11.41v-4.29h-.48c-1.43,3.25-6.58,7.38-14,7.38-9.68,0-20-7.22-20-21.41S135.93,79,145.61,79c7.45,0,12.6,4.13,14,7.38h.48V79.77Zm-8.49,20.61c0-8.88-6.42-13.48-13.08-13.48s-13,4.6-13,13.48,6.42,13.48,13,13.48S160.35,109.26,160.35,100.38Z"></path><rect class="cls-2" x="70.07" y="79.75" width="8.72" height="41.23"></rect><path class="cls-3" d="M74.43,74.17a7.89,7.89,0,0,1-5.69-2.31,7.62,7.62,0,0,1,0-11.08,8.21,8.21,0,0,1,11.41,0,7.68,7.68,0,0,1,0,11.08A7.92,7.92,0,0,1,74.43,74.17Z"></path></g></g></svg>