<svg width="210" height="210" version="1.1" viewBox="0 0 56 56" xml:space="preserve" xmlns="http://www.w3.org/2000/svg"><g transform="translate(-24 -125)"><rect x="24" y="125" width="56" height="56" stroke-linecap="square" stroke-width="9.3" style="paint-order:stroke fill markers"/><g transform="matrix(.68 0 0 .68 -78 136)" fill="#fff"><path d="m208 18c0-7.9-7.8-7.4-10-7.9h11c3.2 0 8.4 2.1 8.4 7.9s-4.1 7.9-7.3 7.9h-5.3s3.1 0 3.1-7.9zm-43 24h13l-13-14zm14-31 13 15v-15zm25 16h-11l13 16h12zm-30-7.9c0 6 1.9 7.4 4.3 7.9h-6.8c-3.2 0-7.2-2.1-7.2-7.9s4-7.9 7.2-7.9h6.8c-2.4 0.46-4.3 2-4.3 7.9zm9.4 16c0-5.9-1.9-7.4-4.4-7.8h6.8c3.2 0 7.3 2.1 7.3 7.8s-4 7.8-7.3 7.8h-6.8c2.4-0.46 4.4-1.9 4.4-7.8z" fill="#fff"/></g></g></svg>
