<?xml version="1.0" encoding="UTF-8"?>
<svg xmlns="http://www.w3.org/2000/svg"
    xmlns:xlink="http://www.w3.org/1999/xlink" viewBox="0 0 40 40" version="1.1">
    <g id="surface1">
        <path style=" stroke:none;fill-rule:nonzero;fill:rgb(100%,81.568627%,0%);fill-opacity:1;" d="M 20 0 C 31.046875 0 40 8.953125 40 20 C 40 31.046875 31.046875 40 20 40 C 8.953125 40 0 31.046875 0 20 C 0 8.953125 8.953125 0 20 0 Z M 20 0 "/>
        <path style="fill:none;stroke-width:0.864;stroke-linecap:round;stroke-linejoin:round;stroke:rgb(100%,100%,100%);stroke-opacity:1;stroke-miterlimit:4;" d="M 28.021875 15.689062 C 27.848437 15.689062 27.679687 15.75 27.54375 15.857812 L 22.3125 20.189062 L 17.709375 20.189062 C 17.296875 20.189062 16.959375 20.521875 16.959375 20.939062 L 16.959375 26.657812 C 16.964062 27.070312 17.296875 27.403125 17.709375 27.407812 L 17.728125 27.407812 L 22.678125 27.31875 L 27.520312 31.715625 C 27.65625 31.8375 27.839062 31.907812 28.021875 31.907812 C 28.129687 31.907812 28.232812 31.884375 28.33125 31.842187 C 28.598437 31.720312 28.776562 31.453125 28.771875 31.157812 L 28.771875 16.439062 C 28.771875 16.148437 28.607812 15.88125 28.340625 15.759375 C 28.242187 15.7125 28.134375 15.689062 28.021875 15.689062 Z M 28.021875 15.689062 " transform="matrix(0.833333,0,0,0.833333,0,0)"/>
        <path style="fill:none;stroke-width:0.864;stroke-linecap:round;stroke-linejoin:round;stroke:rgb(100%,100%,100%);stroke-opacity:1;stroke-miterlimit:4;" d="M 7.884375 15.15 C 10.9875 9.80625 16.6875 6.515625 22.865625 6.501562 " transform="matrix(0.833333,0,0,0.833333,0,0)"/>
        <path style="fill:none;stroke-width:0.864;stroke-linecap:round;stroke-linejoin:round;stroke:rgb(100%,100%,100%);stroke-opacity:1;stroke-miterlimit:4;" d="M 23.142187 41.49375 C 16.964062 41.484375 11.259375 38.19375 8.160937 32.85 " transform="matrix(0.833333,0,0,0.833333,0,0)"/>
        <path style="fill:none;stroke-width:0.864;stroke-linecap:round;stroke-linejoin:round;stroke:rgb(100%,100%,100%);stroke-opacity:1;stroke-miterlimit:4;" d="M 37.865625 15.15 C 40.954687 20.503125 40.954687 27.09375 37.865625 32.446875 " transform="matrix(0.833333,0,0,0.833333,0,0)"/>
        <path style="fill:none;stroke-width:0.864;stroke-linecap:round;stroke-linejoin:round;stroke:rgb(100%,100%,100%);stroke-opacity:1;stroke-miterlimit:4;" d="M 10.354687 16.528125 C 12.960937 12.0375 17.751562 9.271875 22.940625 9.2625 " transform="matrix(0.833333,0,0,0.833333,0,0)"/>
        <path style="fill:none;stroke-width:0.864;stroke-linecap:round;stroke-linejoin:round;stroke:rgb(100%,100%,100%);stroke-opacity:1;stroke-miterlimit:4;" d="M 22.940625 38.329687 C 17.751562 38.320312 12.960937 35.554687 10.359375 31.06875 " transform="matrix(0.833333,0,0,0.833333,0,0)"/>
        <path style="fill:none;stroke-width:0.864;stroke-linecap:round;stroke-linejoin:round;stroke:rgb(100%,100%,100%);stroke-opacity:1;stroke-miterlimit:4;" d="M 35.3625 16.528125 C 37.959375 21.023437 37.959375 26.56875 35.3625 31.064062 " transform="matrix(0.833333,0,0,0.833333,0,0)"/>
        <path style="fill:none;stroke-width:0.864;stroke-linecap:round;stroke-linejoin:round;stroke:rgb(100%,100%,100%);stroke-opacity:1;stroke-miterlimit:4;" d="M 12.815625 17.925 C 14.896875 14.339062 18.721875 12.13125 22.865625 12.121875 " transform="matrix(0.833333,0,0,0.833333,0,0)"/>
        <path style="fill:none;stroke-width:0.864;stroke-linecap:round;stroke-linejoin:round;stroke:rgb(100%,100%,100%);stroke-opacity:1;stroke-miterlimit:4;" d="M 22.865625 35.470312 C 18.721875 35.460937 14.896875 33.253125 12.815625 29.671875 " transform="matrix(0.833333,0,0,0.833333,0,0)"/>
        <path style="fill:none;stroke-width:0.864;stroke-linecap:round;stroke-linejoin:round;stroke:rgb(100%,100%,100%);stroke-opacity:1;stroke-miterlimit:4;" d="M 33.042187 17.995312 C 35.109375 21.585937 35.109375 26.00625 33.042187 29.596875 " transform="matrix(0.833333,0,0,0.833333,0,0)"/>
        <path style="fill:none;stroke-width:1.2;stroke-linecap:round;stroke-linejoin:round;stroke:rgb(100%,100%,100%);stroke-opacity:1;stroke-miterlimit:4;" d="M 28.021875 15.689062 C 27.848437 15.689062 27.679687 15.75 27.54375 15.857812 L 22.3125 20.189062 L 17.709375 20.189062 C 17.296875 20.189062 16.959375 20.521875 16.959375 20.939062 L 16.959375 26.657812 C 16.964062 27.070312 17.296875 27.403125 17.709375 27.407812 L 17.728125 27.407812 L 22.678125 27.31875 L 27.520312 31.715625 C 27.65625 31.8375 27.839062 31.907812 28.021875 31.907812 C 28.129687 31.907812 28.232812 31.884375 28.33125 31.842187 C 28.598437 31.720312 28.776562 31.453125 28.771875 31.157812 L 28.771875 16.439062 C 28.771875 16.148437 28.607812 15.88125 28.340625 15.759375 C 28.242187 15.7125 28.134375 15.689062 28.021875 15.689062 Z M 28.021875 15.689062 " transform="matrix(0.833333,0,0,0.833333,0,0)"/>
        <path style="fill:none;stroke-width:1.2;stroke-linecap:round;stroke-linejoin:round;stroke:rgb(100%,100%,100%);stroke-opacity:1;stroke-miterlimit:4;" d="M 7.884375 15.15 C 10.9875 9.80625 16.6875 6.515625 22.865625 6.501562 " transform="matrix(0.833333,0,0,0.833333,0,0)"/>
        <path style="fill:none;stroke-width:1.2;stroke-linecap:round;stroke-linejoin:round;stroke:rgb(100%,100%,100%);stroke-opacity:1;stroke-miterlimit:4;" d="M 23.142187 41.49375 C 16.964062 41.484375 11.259375 38.19375 8.160937 32.85 " transform="matrix(0.833333,0,0,0.833333,0,0)"/>
        <path style="fill:none;stroke-width:1.2;stroke-linecap:round;stroke-linejoin:round;stroke:rgb(100%,100%,100%);stroke-opacity:1;stroke-miterlimit:4;" d="M 37.865625 15.15 C 40.954687 20.503125 40.954687 27.09375 37.865625 32.446875 " transform="matrix(0.833333,0,0,0.833333,0,0)"/>
        <path style="fill:none;stroke-width:1.2;stroke-linecap:round;stroke-linejoin:round;stroke:rgb(100%,100%,100%);stroke-opacity:1;stroke-miterlimit:4;" d="M 10.354687 16.528125 C 12.960937 12.0375 17.751562 9.271875 22.940625 9.2625 " transform="matrix(0.833333,0,0,0.833333,0,0)"/>
        <path style="fill:none;stroke-width:1.2;stroke-linecap:round;stroke-linejoin:round;stroke:rgb(100%,100%,100%);stroke-opacity:1;stroke-miterlimit:4;" d="M 22.940625 38.329687 C 17.751562 38.320312 12.960937 35.554687 10.359375 31.06875 " transform="matrix(0.833333,0,0,0.833333,0,0)"/>
        <path style="fill:none;stroke-width:1.2;stroke-linecap:round;stroke-linejoin:round;stroke:rgb(100%,100%,100%);stroke-opacity:1;stroke-miterlimit:4;" d="M 35.3625 16.528125 C 37.959375 21.023437 37.959375 26.56875 35.3625 31.064062 " transform="matrix(0.833333,0,0,0.833333,0,0)"/>
        <path style="fill:none;stroke-width:1.2;stroke-linecap:round;stroke-linejoin:round;stroke:rgb(100%,100%,100%);stroke-opacity:1;stroke-miterlimit:4;" d="M 12.815625 17.925 C 14.896875 14.339062 18.721875 12.13125 22.865625 12.121875 " transform="matrix(0.833333,0,0,0.833333,0,0)"/>
        <path style="fill:none;stroke-width:1.2;stroke-linecap:round;stroke-linejoin:round;stroke:rgb(100%,100%,100%);stroke-opacity:1;stroke-miterlimit:4;" d="M 22.865625 35.470312 C 18.721875 35.460937 14.896875 33.253125 12.815625 29.671875 " transform="matrix(0.833333,0,0,0.833333,0,0)"/>
        <path style="fill:none;stroke-width:1.2;stroke-linecap:round;stroke-linejoin:round;stroke:rgb(100%,100%,100%);stroke-opacity:1;stroke-miterlimit:4;" d="M 33.042187 17.995312 C 35.109375 21.585937 35.109375 26.00625 33.042187 29.596875 " transform="matrix(0.833333,0,0,0.833333,0,0)"/>
    </g>
</svg>
