<?xml version="1.0" encoding="utf-8"?><svg version="1.1" id="Layer_1" xmlns="http://www.w3.org/2000/svg" xmlns:xlink="http://www.w3.org/1999/xlink" x="0px" y="0px" viewBox="0 0 122.88 122.88" style="enable-background:new 0 0 122.88 122.88" xml:space="preserve"><style type="text/css"><![CDATA[
	.st0{fill:#14D8CC;}
	.st1{fill:#1C203C;}
]]></style><g><path class="st1" d="M18.43,0h86.02c10.18,0,18.43,8.25,18.43,18.43v86.02c0,10.18-8.25,18.43-18.43,18.43H18.43 C8.25,122.88,0,114.63,0,104.45l0-86.02C0,8.25,8.25,0,18.43,0L18.43,0z"/><path class="st0" d="M71.52,36.48c-1.44,0-1.44,1.44-1.44,1.44v8.16H13.44C12,46.08,12,47.52,12,47.52v29.52 c0,1.44,1.44,1.44,1.44,1.44h58.08c1.44,0,1.44-1.44,1.44-1.44v-8.16h32.88c1.44,0,1.44-1.44,1.44-1.44V37.92 c0-1.44-1.44-1.44-1.44-1.44H71.52L71.52,36.48z M80.4,46.08h6.72v2.64l-2.16,0v8.16l2.4,0v2.64h-7.2v-2.64l2.16,0v-8.16l-1.92,0 V46.08L80.4,46.08L80.4,46.08z M89.28,46.08h3.12l2.88,8.16v-8.16h2.64v13.44h-2.88l-3.12-7.92v7.92h-2.64V46.08L89.28,46.08 L89.28,46.08z M14.88,48.96h55.2V75.6h-55.2V48.96L14.88,48.96z M22.08,55.68v2.64h2.88v10.56h2.64V58.32l2.88,0v-2.64H22.08 L22.08,55.68z M32.4,55.68v9.36c0,0,0,4.08,4.56,4.08s4.56-4.08,4.56-4.08v-9.36h-2.64v9.36c0,0,0,1.44-1.92,1.44 s-1.92-1.44-1.92-1.44v-9.36H32.4L32.4,55.68z M43.68,55.68v13.2h2.64v-7.44l2.64,7.44h3.36v-13.2h-2.88v7.44l-2.64-7.44H43.68 L43.68,55.68z M54.24,55.68v13.2h7.92v-2.64h-5.04V63.6h4.8v-2.64h-4.8v-2.64l4.8,0v-2.64H54.24L54.24,55.68z"/></g></svg>
