<svg viewBox="0 0 24 24" fill="none" xmlns="http://www.w3.org/2000/svg">
<path d="M5.49875 4.68702C5.49875 4.30759 5.79351 4 6.15711 4H13.8379C14.2015 4 14.4963 4.30759 14.4963 4.68702V16.6527C14.4963 16.7104 14.4931 16.7677 14.4869 16.8244C14.355 18.0406 12.8466 19 11.5885 19C10.1621 19 8.6808 18.2926 8.6808 16.6527C8.6808 15.0128 9.99751 14.1908 11.3691 14.1908C12.018 14.1908 12.6531 14.3811 13.1796 14.6935V8.23664C13.1796 7.92045 12.9339 7.66412 12.6309 7.66412H7.36409C7.06109 7.66412 6.81546 7.92045 6.81546 8.23664V16.6527C6.81546 17.9491 5.22444 19 3.90773 19C2.4813 19 1 18.2926 1 16.6527C1 15.0128 2.31671 14.1908 3.68828 14.1908C4.33718 14.1908 4.97227 14.3811 5.49875 14.6935V4.68702Z" fill="#2BAAA6"/>
<path fill-rule="evenodd" clip-rule="evenodd" d="M16.5028 7.51765C16.8893 7.16236 17.4787 7.20133 17.8191 7.6047C18.7211 8.67335 19.2693 10.0783 19.2693 11.6145C19.2693 13.1507 18.7211 14.5557 17.8191 15.6243C17.4787 16.0277 16.8893 16.0667 16.5028 15.7114C16.1163 15.3561 16.0789 14.7411 16.4194 14.3377C17.0329 13.6108 17.404 12.6591 17.404 11.6145C17.404 10.5699 17.0329 9.61818 16.4194 8.89133C16.0789 8.48796 16.1163 7.87294 16.5028 7.51765Z" fill="#2BAAA6"/>
<path fill-rule="evenodd" clip-rule="evenodd" d="M19.2531 4.87572C19.638 4.51854 20.2275 4.55463 20.5698 4.95632C22.081 6.72989 23 9.06177 23 11.6145C23 14.1672 22.081 16.4991 20.5698 18.2727C20.2275 18.6744 19.638 18.7105 19.2531 18.3533C18.8681 17.9961 18.8336 17.3809 19.1758 16.9792C20.3965 15.5466 21.1347 13.6702 21.1347 11.6145C21.1347 9.55882 20.3965 7.68239 19.1758 6.24978C18.8336 5.84809 18.8681 5.2329 19.2531 4.87572Z" fill="#2BAAA6"/>
</svg>
