<svg xmlns="http://www.w3.org/2000/svg" width="139" height="125" viewBox="0 0 139 125"><title>icon-logo</title><defs><radialGradient id="a" cx="-4.88%" cy="-23.3%" r="93.85%" fx="-4.88%" fy="-23.3%"><stop offset="65.23%" stop-color="#dcdcdc"/><stop offset="73.96%" stop-color="#e0e0e0"/><stop offset="100%" stop-color="#e8e8e8"/></radialGradient></defs><g fill="none" fill-rule="evenodd"><path fill="#fff" d="M73.17 54.09a27.6 27.6 0 0 0 19.3 8.99 35 35 0 0 0-7.77-4.96q1.28-3.15 3.23-5.87l-6.5-6.5a30 30 0 0 1-8.26 8.34"/><path fill="#96faf0" d="M93.6 8c-4.92 0-9.54 1.28-13.54 3.54a29.3 29.3 0 0 1 6.2 18.06c0 5.97-1.78 11.51-4.84 16.15l6.51 6.5a28.1 28.1 0 0 1 32.48-10.08q.79-3.19.8-6.62A27.6 27.6 0 0 0 93.6 7.99"/><path fill="#e8e8e8" d="M69.9 124.76a35 35 0 0 0 35.03-34.96 35 35 0 0 0-35.04-34.97A35 35 0 0 0 34.85 89.8a35 35 0 0 0 35.04 34.96"/><path fill="#96faf0" d="M100.9 73.55a35 35 0 0 0-16.2-15.43 28 28 0 0 0-.74 18.75q1.33.1 2.68.11c4.9 0 9.8-1.15 14.26-3.43"/><path fill="#96faf0" d="M100.9 73.55a31.3 31.3 0 0 1-16.94 3.32 28.1 28.1 0 0 0 20.42 18.97q.53-2.95.54-6.04c0-5.87-1.46-11.4-4.02-16.25"/><path fill="#e8e8e8" d="M80.06 11.54A29.5 29.5 0 0 0 56.74.14 29.5 29.5 0 0 0 27.2 29.6a29.5 29.5 0 0 0 29.53 29.47c6.08 0 11.73-1.84 16.43-4.98a27.53 27.53 0 0 1 6.89-42.55"/><path fill="#fff" d="M86.27 29.6a29.3 29.3 0 0 0-6.21-18.06 27.53 27.53 0 0 0-6.9 42.55 29.4 29.4 0 0 0 13.1-24.49"/><path fill="#e8e8e8" d="M120.4 42.17a27.6 27.6 0 0 1-27.93 20.9q1.14.95 2.18 2a34.8 34.8 0 0 1 9.73 30.77q3.11.73 6.43.74a28.1 28.1 0 0 0 28.12-28.05 28.1 28.1 0 0 0-18.52-26.36"/><path fill="url(#a)" d="M120.4 42.17a28 28 0 0 0-9.59-1.7A28.1 28.1 0 0 0 84.7 58.12a35 35 0 0 1 7.77 4.96l1.13.02a27.6 27.6 0 0 0 26.8-20.93"/><path fill="#d9d9d9" d="M120.4 42.17a28 28 0 0 0-9.59-1.7A28.1 28.1 0 0 0 84.7 58.12a35 35 0 0 1 7.77 4.96l1.13.02a27.6 27.6 0 0 0 26.8-20.93"/><path fill="#96faf0" d="M66.3 35.4a38.3 38.3 0 0 0-27.1-11.2 38.2 38.2 0 0 0-25.84 10 36.6 36.6 0 0 0 9.93 33.63 37 37 0 0 0 14.13 8.78 35.1 35.1 0 0 1 29.35-21.63 41 41 0 0 1 8.45-5.6A38 38 0 0 0 66.3 35.4"/><path fill="#fff" d="M57.48 57.1a35 35 0 0 0-20.05 19.5 35 35 0 0 0-2.6 13.19c.01 3.77.62 7.4 1.73 10.8q1.3.09 2.63.1c5.37 0 10.47-1.1 15.1-3.1a41 41 0 0 1-1.02-19.25 40.8 40.8 0 0 1 13.51-23.38 35 35 0 0 0-9.3 2.13"/><path fill="#e8e8e8" d="M37.43 76.61a35 35 0 0 0-2.6 13.19c.01 3.77.62 7.4 1.73 10.8A38.3 38.3 0 0 1 12.1 89.49a38.13 38.13 0 0 1 1.27-55.3 36.6 36.6 0 0 0 9.93 33.63 37 37 0 0 0 14.13 8.8"/><path fill="#efefef" d="M76.89 55.53a38 38 0 0 0-1.66-6.15 40.8 40.8 0 0 0-21.97 28.97A41 41 0 0 0 54.3 97.6a38.4 38.4 0 0 0 21.13-22.69 38 38 0 0 0 1.46-19.38"/><path fill="#000" d="M80.02 33.66H94.3v57.56H80.02zm-34.52 0h14.27v57.56H45.5zm32.03 28.79a7.62 7.62 0 1 1-15.25-.03 7.62 7.62 0 0 1 15.25.03"/><path fill="#96faf0" d="M54.32 97.6a38 38 0 0 1-17.74 3 35 35 0 0 0 33.31 24.16q4.41-.02 8.5-1.04A40.7 40.7 0 0 1 54.32 97.6"/></g></svg>