<svg viewBox="0 0 24 24" fill="none" xmlns="http://www.w3.org/2000/svg">
<circle cx="12" cy="12" r="6" fill="white"/>
<path fill-rule="evenodd" clip-rule="evenodd" d="M12 22C17.5228 22 22 17.5228 22 12C22 6.47715 17.5228 2 12 2C6.47715 2 2 6.47715 2 12C2 17.5228 6.47715 22 12 22ZM10.1818 14.6136L14.6136 11.8864L10.1818 9.38636V14.6136ZM6.77273 12C6.77273 9.11364 9.11364 6.77273 12 6.77273C14.8864 6.77273 17.2273 9.11364 17.2273 12C17.2273 14.8864 14.8864 17.2273 12 17.2273C9.11364 17.2273 6.77273 14.8864 6.77273 12ZM12 7.22727C14.625 7.22727 16.7727 9.36364 16.7727 12C16.7727 14.6364 14.6364 16.7727 12 16.7727C9.36364 16.7727 7.22727 14.6364 7.22727 12C7.22727 9.36364 9.375 7.22727 12 7.22727Z" fill="#FF0000"/>
</svg>
