<svg xmlns="http://www.w3.org/2000/svg" aria-label="Apple Music" role="img" viewBox="0 0 512 512" fill="#000000"><g id="SVGRepo_bgCarrier" stroke-width="0"></g><g id="SVGRepo_tracerCarrier" stroke-linecap="round" stroke-linejoin="round"></g><g id="SVGRepo_iconCarrier"><rect width="512" height="512" rx="15%" fill="url(#g)"></rect><linearGradient id="g" x1=".5" y1=".99" x2=".5" y2=".02"><stop offset="0" stop-color="#FA233B"></stop><stop offset="1" stop-color="#FB5C74"></stop></linearGradient><path fill="#ffffff" d="M199 359V199q0-9 10-11l138-28q11-2 12 10v122q0 15-45 20c-57 9-48 105 30 79 30-11 35-40 35-69V88s0-20-17-15l-170 35s-13 2-13 18v203q0 15-45 20c-57 9-48 105 30 79 30-11 35-40 35-69"></path></g></svg>
