<svg viewBox="0 0 24 25" fill="none" xmlns="http://www.w3.org/2000/svg">
<path fill-rule="evenodd" clip-rule="evenodd" d="M12 13.4434C12.521 13.4434 12.9434 13.021 12.9434 12.5C12.9434 11.979 12.521 11.5566 12 11.5566C11.479 11.5566 11.0566 11.979 11.0566 12.5C11.0566 13.021 11.479 13.4434 12 13.4434ZM12 15.7075C13.7715 15.7075 15.2075 14.2715 15.2075 12.5C15.2075 10.7285 13.7715 9.29245 12 9.29245C10.2285 9.29245 8.79245 10.7285 8.79245 12.5C8.79245 14.2715 10.2285 15.7075 12 15.7075Z" fill="white"/>
<path fill-rule="evenodd" clip-rule="evenodd" d="M12 2.5C17.5228 2.5 22 6.97715 22 12.5C22 14.8535 21.1869 17.0172 19.8264 18.7254L21.9029 20.8019L20.3019 22.4029L18.2254 20.3264C16.5172 21.6869 14.3535 22.5 12 22.5C6.47715 22.5 2 18.0228 2 12.5C2 6.97715 6.47715 2.5 12 2.5ZM19.7358 12.5C19.7358 8.22761 16.2724 4.76415 12 4.76415C7.72761 4.76415 4.26415 8.22761 4.26415 12.5C4.26415 16.7724 7.72761 20.2358 12 20.2358C13.7278 20.2358 15.3234 19.6694 16.611 18.712L15.1618 17.2628C14.7197 16.8207 14.7197 16.1039 15.1618 15.6618C15.6039 15.2197 16.3207 15.2197 16.7628 15.6618L18.212 17.111C19.1694 15.8234 19.7358 14.2278 19.7358 12.5Z" fill="white"/>
</svg>
