<svg xmlns="http://www.w3.org/2000/svg" shape-rendering="geometricPrecision" text-rendering="geometricPrecision" image-rendering="optimizeQuality" fill-rule="evenodd" clip-rule="evenodd" viewBox="0 0 512 512"><defs><linearGradient id="prefix__a" gradientUnits="userSpaceOnUse" x1="229.359" y1="308.357" x2="221.221" y2="354.463"><stop offset="0" stop-color="#2C8C9D"/><stop offset=".039" stop-color="#298E9A"/><stop offset=".388" stop-color="#129C83"/><stop offset=".722" stop-color="#05A475"/><stop offset="1" stop-color="#00A770"/></linearGradient><linearGradient id="prefix__b" gradientUnits="userSpaceOnUse" x1="326.89" y1="243.406" x2="391.311" y2="276.234"><stop offset="0" stop-color="#2839BA"/><stop offset="1" stop-color="#148CB3"/></linearGradient><linearGradient id="prefix__c" gradientUnits="userSpaceOnUse" x1="98.037" y1="171.167" x2="160.586" y2="171.167"><stop offset="0" stop-color="#F6A500"/><stop offset="1" stop-color="#F29100"/></linearGradient><linearGradient id="prefix__d" gradientUnits="userSpaceOnUse" x1="173.609" y1="171.167" x2="236.158" y2="171.167"><stop offset="0" stop-color="#F29100"/><stop offset="1" stop-color="#D12F5F"/></linearGradient><linearGradient id="prefix__e" gradientUnits="userSpaceOnUse" x1="249.206" y1="171.167" x2="311.754" y2="171.167"><stop offset="0" stop-color="#B4197C"/><stop offset="1" stop-color="#472EAD"/></linearGradient><linearGradient id="prefix__f" gradientUnits="userSpaceOnUse" x1="324.779" y1="171.168" x2="387.329" y2="171.168"><stop offset="0" stop-color="#2839BA"/><stop offset="1" stop-color="#3072B7"/></linearGradient><linearGradient id="prefix__g" gradientUnits="userSpaceOnUse" x1="253.733" y1="213.908" x2="321.188" y2="233.63"><stop offset="0" stop-color="#B4197C"/><stop offset="1" stop-color="#373AAC"/></linearGradient><linearGradient id="prefix__h" gradientUnits="userSpaceOnUse" x1="167.193" y1="260.816" x2="234.158" y2="236.453"><stop offset="0" stop-color="#FFCB00"/><stop offset="1" stop-color="#D12F5F"/></linearGradient><linearGradient id="prefix__i" gradientUnits="userSpaceOnUse" x1="215.628" y1="339.641" x2="267.598" y2="291.676"><stop offset="0" stop-color="#FFCF00"/><stop offset="1" stop-color="#ED743B"/></linearGradient></defs><path d="M105 0h302c57.928.155 104.845 47.072 105 104.996V407c-.155 57.926-47.072 104.844-104.996 104.998L105 512C47.074 511.844.156 464.926.002 407.003L0 105C.156 47.072 47.074.155 104.997 0H105z"/><path fill="#29AB70" d="M387.327 152.62h-62.552v36.506h62.552z"/><path fill="url(#prefix__a)" d="M324.779 203.448h62.548v36.518h-62.548z"/><path fill="url(#prefix__b)" d="M324.745 254.294h62.543v36.513h-62.543z"/><path fill="url(#prefix__c)" d="M98.037 305.092h62.549v36.528H98.037z"/><path fill="url(#prefix__d)" d="M173.609 305.092h62.549v36.528h-62.549z"/><path fill="url(#prefix__e)" d="M249.206 305.092h62.549v36.528h-62.549z"/><path fill="url(#prefix__f)" d="M324.779 305.091h62.55v36.53h-62.55z"/><path fill="url(#prefix__g)" d="M249.206 254.242h62.548v36.475h-62.548z"/><path fill="url(#prefix__h)" d="M173.601 254.273h62.566v36.485h-62.566z"/><path fill="url(#prefix__i)" d="M173.625 203.462h62.517v36.492h-62.517z"/></svg>
