<?xml version="1.0" encoding="utf-8"?>
<!-- Generator: Adobe Illustrator 24.3.0, SVG Export Plug-In . SVG Version: 6.00 Build 0)  -->
<svg version="1.1" id="text-OL" xmlns="http://www.w3.org/2000/svg" xmlns:xlink="http://www.w3.org/1999/xlink" x="0px" y="0px"
	 viewBox="0 0 125 125" style="enable-background:new 0 0 125 125;" xml:space="preserve">
<style type="text/css">
	.st0{opacity:0;}
	.st1{fill:#FAFAFA;}
	.st2{clip-path:url(#SVGID_2_);}
	.st3{clip-path:url(#SVGID_4_);}
	.st4{fill:#FFFFFF;}
</style>
<g class="st0">
	<rect class="st1" width="125" height="125"/>
</g>
<g>
	<g>
		<defs>
			<path id="SVGID_1_" d="M81,88.8c0.4,0.5,0.4,1.3-0.1,1.7c-0.2,0.2-0.5,0.3-0.8,0.3H44.9c-0.7,0-1.2-0.5-1.2-1.2
				c0-0.3,0.1-0.6,0.3-0.8l17.5-20.1c0.5-0.6,1.3-0.6,1.9-0.1l0.1,0.1L81,88.8z M76.9,77.7l-2.8-3.3h10.5c0.9,0.1,1.7-0.1,2.5-0.4
				c0.5-0.3,1-0.7,1.2-1.2c0.4-0.8,0.5-1.7,0.4-2.5V45.8c0.1-0.9-0.1-1.7-0.4-2.5c-0.3-0.5-0.7-1-1.2-1.2c-0.8-0.4-1.7-0.5-2.5-0.4
				h-44c-0.9-0.1-1.7,0.1-2.5,0.4c-0.5,0.3-1,0.7-1.2,1.2c-0.4,0.8-0.5,1.7-0.4,2.5v24.4c-0.1,0.9,0.1,1.7,0.4,2.5
				c0.3,0.5,0.7,1,1.2,1.2c0.8,0.4,1.7,0.5,2.5,0.4h10.5l-2.8,3.3h-6.7c-3,0-4-0.3-5-0.9c-1.1-0.6-1.9-1.4-2.5-2.5s-0.9-2.1-0.9-5
				V46.7c0-3,0.3-4,0.9-5.1c0.6-1.1,1.4-1.9,2.5-2.5s2.1-0.9,5-0.9h42.2c3,0,4,0.3,5.1,0.9c1.1,0.6,1.9,1.4,2.5,2.5s0.9,2.1,0.9,5.1
				v22.5c0,3-0.3,4-0.9,5c-0.6,1.1-1.4,1.9-2.5,2.5s-2.1,0.9-5.1,0.9L76.9,77.7z"/>
		</defs>
		<use xlink:href="#SVGID_1_"  style="overflow:visible;fill:#FFFFFF;"/>
		<clipPath id="SVGID_2_">
			<use xlink:href="#SVGID_1_"  style="overflow:visible;"/>
		</clipPath>
		<g class="st2">
			<g>
				<g>
					<defs>
						<rect id="SVGID_3_" x="10.1" y="10.5" width="104.9" height="104.9"/>
					</defs>
					<use xlink:href="#SVGID_3_"  style="overflow:visible;fill:#FFFFFF;"/>
					<clipPath id="SVGID_4_">
						<use xlink:href="#SVGID_3_"  style="overflow:visible;"/>
					</clipPath>
					<g class="st3">
						<rect x="24.8" y="30.1" class="st4" width="75.4" height="68.8"/>
					</g>
				</g>
			</g>
		</g>
	</g>
</g>
</svg>
