<svg version="1.2" xmlns="http://www.w3.org/2000/svg" viewBox="0 0 1536 1542" width="24" height="25">
	<title>SIRI_BIG copy-svg</title>
	<style>
		.s0 { fill: #ffffff; }
	</style>
	<path id="Layer" class="s0" d="m1477.8 829.2c36.1 54.7 57.3 121 57.3 203.4-2.5 303.2-253.7 508.5-794.6 508.5-338 0-709.6-103-740.5-495v-19.3h506.8l-112.1 330.2 369.6-256.8 369.7 256.8-96-283.9c-14.8-28.9-53.4-45-53.4-45-202.2-112-938.9-51.5-938.9-546.6 0-372.7 392.2-481.5 699.3-481.5 321.4 0 698.7 72.7 732.2 459v14.8h-570.5l-141.1-415.2-141.6 415.2h-457.2l255.6 175.7c74.7-29.6 154.6-42.4 234.4-51.5 85.7-9 171.9-10.9 258.2-5.1 72.1 4.5 144.3 14.8 215.1 31.5 63.8 14.8 128.8 31.6 186.7 63.1 65.1 36.1 121.7 81.1 161 141.7z"/>
</svg>
