<?xml version="1.0" encoding="UTF-8" standalone="no"?>
<svg
   width="512"
   height="512"
   viewBox="0 0 52.244898 52.244898"
   fill="none"
   version="1.1"
   id="svg16"
   sodipodi:docname="icon_monochrome.svg"
   inkscape:version="1.3.2 (091e20e, 2023-11-25, custom)"
   xmlns:inkscape="http://www.inkscape.org/namespaces/inkscape"
   xmlns:sodipodi="http://sodipodi.sourceforge.net/DTD/sodipodi-0.dtd"
   xmlns="http://www.w3.org/2000/svg"
   xmlns:svg="http://www.w3.org/2000/svg">
  <defs
     id="defs16" />
  <sodipodi:namedview
     id="namedview16"
     pagecolor="#55ffff"
     bordercolor="#000000"
     borderopacity="0.25"
     inkscape:showpageshadow="2"
     inkscape:pageopacity="0.0"
     inkscape:pagecheckerboard="0"
     inkscape:deskcolor="#d1d1d1"
     inkscape:zoom="0.88764468"
     inkscape:cx="166.17009"
     inkscape:cy="123.36017"
     inkscape:window-width="1920"
     inkscape:window-height="1129"
     inkscape:window-x="-8"
     inkscape:window-y="-8"
     inkscape:window-maximized="1"
     inkscape:current-layer="svg16" />
  <path
     d="m 48.5898,50.925 c 1.7516,0 3.1875,-1.4344 3.1875,-3.1903 v -19.142 c 0,-1.7559 -1.0109,-4.2066 -2.2537,-5.448 L 28.5311,2.131047 c -1.2363,-1.241396 -3.2647,-1.241396 -4.5075,0 L 3.03113,23.1383 c -1.23636,1.2414 -2.253786,3.692 -2.253786,5.448 v 19.1484 c 0,1.7495 1.435986,3.1903 3.187496,3.1903 h 4.8875 V 28.6125 c 0,-0.2347 0.19028,-0.425 0.425,-0.425 h 2.12496 c 0.2348,0 0.425,0.1903 0.425,0.425 V 50.925 h 1.9125 V 28.6125 c 0,-0.2347 0.1903,-0.425 0.425,-0.425 h 2.125 c 0.2348,0 0.425,0.1903 0.425,0.425 V 50.925 h 1.9125 V 28.6125 c 0,-0.2347 0.1903,-0.425 0.425,-0.425 h 2.125 c 0.2348,0 0.425,0.1903 0.425,0.425 V 50.925 h 1.9125 l 6.9201,-22.4377 c 0.055,-0.1782 0.2196,-0.2998 0.4061,-0.2998 h 2.0855 c 0.2861,0 0.4904,0.2769 0.4061,0.5503 L 26.4898,50.925 H 42.4273 L 35.5845,28.7378 c -0.0843,-0.2734 0.1201,-0.5503 0.4062,-0.5503 h 2.0855 c 0.1864,0 0.3511,0.1216 0.4061,0.2998 l 6.92,22.4377 z"
     fill="#18bcf2"
     id="path2"
     style="fill:#ffffff;fill-opacity:1" />
</svg>
