<svg clip-rule="evenodd" fill-rule="evenodd" stroke-linejoin="round" stroke-miterlimit="2" version="1.1" viewBox="6.4552e-5 0 500 500" xml:space="preserve" xmlns="http://www.w3.org/2000/svg">
    <g transform="matrix(.48835 0 0 .48835 -880 0)">
        <path d="m2595.5 0h-563.12c-127.23 0-230.37 103.14-230.37 230.37v563.12c0 127.23 103.14 230.37 230.37 230.37h563.12c127.23 0 230.37-103.14 230.37-230.37v-563.12c0-127.23-103.14-230.37-230.37-230.37z" fill="#fff" fill-rule="nonzero"/>
    </g>
    <g transform="matrix(.48835 0 0 .48835 -880 0)">
        <path d="m2595.5 0h-563.12c-127.23 0-230.37 103.14-230.37 230.37v563.12c0 127.23 103.14 230.37 230.37 230.37h563.12c127.23 0 230.37-103.14 230.37-230.37v-563.12c0-127.23-103.14-230.37-230.37-230.37z" fill="#d8a158" fill-rule="nonzero"/>
    </g>
    <g transform="matrix(.48835 0 0 .48835 .73081 .53181)">
        <path d="m319.09 429.94c-44.956 0-81.54 36.19-81.54 80.68 0 44.478 36.584 80.67 81.54 80.67 44.952 0 81.526-36.192 81.526-80.67 0-44.49-36.574-80.68-81.526-80.68zm2e-3 132.37c-28.512 0-51.694-23.182-51.694-51.68 0-28.502 23.182-51.684 51.694-51.684 28.508 0 51.702 23.182 51.702 51.684 0 28.498-23.194 51.68-51.702 51.68zm225.94-39.882-98.286-90.664v153.72h29.122v-85.834l98.29 90.528v-154.11h-29.126v86.362zm-390.15-25.794c15.172 4.764 25.351 9.486 33.084 15.324 11.525 8.692 17.368 19.834 17.368 33.072 0 12.342-5.771 24.376-15.84 33.026-10.114 8.664-23.991 13.452-39.089 13.452-31.416 0-49.471-20.83-50.217-21.704l-2.568-3.008 23.489-15.692 2.038 1.502c3.78 2.804 14.024 9.326 27.258 9.326 15.673 0 25.047-8.588 25.047-16.902 0-3.54 0-10.904-29.522-20.188-15.179-4.77-25.351-9.488-33.085-15.326-11.529-8.692-17.382-19.824-17.382-33.072 0-12.344 5.776-24.378 15.849-33.026 10.106-8.676 23.983-13.454 39.084-13.454 31.413 0 49.468 20.816 50.228 21.706l2.554 3.01-23.474 15.692-2.038-1.508c-3.797-2.808-14.063-9.33-27.27-9.33-15.673 0-25.04 8.6-25.04 16.91 0 3.542 0 10.902 29.526 20.19zm546.92-66.094c-44.946 0-81.52 36.192-81.52 80.676s36.574 80.674 81.52 80.674c44.968 0 81.542-36.19 81.542-80.674s-36.574-80.676-81.542-80.676zm-4e-3 132.36c-28.506 0-51.688-23.19-51.688-51.684 0-28.492 23.182-51.674 51.688-51.674s51.7 23.182 51.7 51.674c0 28.494-23.194 51.684-51.7 51.684zm164.22-37.692c-15.184-4.778-25.354-9.496-33.09-15.334-11.526-8.698-17.354-19.826-17.354-33.076 0-12.33 5.764-24.368 15.832-33.024 10.112-8.676 23.988-13.454 39.088-13.454 31.41 0 49.47 20.828 50.214 21.706l2.562 3.012-23.478 15.7-2.04-1.512c-3.792-2.8-14.02-9.324-27.258-9.324-15.68 0-25.052 8.588-25.052 16.896 0 3.544 0 10.906 29.528 20.192 15.182 4.762 25.356 9.486 33.088 15.324 11.526 8.694 17.364 19.832 17.364 33.072 0 12.348-5.77 24.38-15.842 33.024-10.104 8.68-23.98 13.458-39.086 13.458-31.412 0-49.462-20.82-50.214-21.706l-2.566-3.016 23.482-15.682 2.038 1.498c3.792 2.808 14.058 9.332 27.26 9.332 15.678 0 25.05-8.596 25.05-16.908 0-3.54 0-10.906-29.526-20.178z"/>
    </g>
</svg>
