<?xml version="1.0" standalone="no"?>
<!DOCTYPE svg PUBLIC "-//W3C//DTD SVG 20010904//EN"
 "http://www.w3.org/TR/2001/REC-SVG-20010904/DTD/svg10.dtd">
<svg version="1.0" xmlns="http://www.w3.org/2000/svg"
 width="2048.000000pt" height="2048.000000pt" viewBox="0 0 2048.000000 2048.000000"
 preserveAspectRatio="xMidYMid meet">
<metadata>
Created by potrace 1.16, written by Peter Selinger 2001-2019
</metadata>
<g transform="translate(0.000000,2048.000000) scale(0.100000,-0.100000)"
fill="#18bcf2" stroke="none">
<path d="M7655 18421 c-86 -24 -134 -61 -173 -135 l-27 -51 -5 -514 -5 -515
-45 -16 c-165 -61 -208 -87 -305 -185 -56 -58 -107 -99 -135 -112 -51 -22
-103 -76 -126 -131 -9 -20 -16 -67 -16 -104 -1 -105 29 -163 118 -229 l54 -40
0 -193 c0 -106 -3 -260 -6 -343 l-7 -149 -84 -23 c-110 -31 -188 -82 -234
-152 -36 -55 -43 -73 -78 -195 -21 -69 -21 -71 -73 -94 -308 -138 -526 -269
-769 -465 -155 -124 -391 -374 -515 -545 -145 -200 -320 -532 -388 -732 -13
-40 -31 -91 -39 -113 -8 -22 -20 -60 -27 -85 -7 -25 -16 -56 -20 -70 -9 -27
-45 -195 -60 -275 -33 -177 -45 -384 -24 -392 8 -3 44 0 82 7 37 6 92 15 122
20 30 5 84 14 120 20 100 16 266 40 360 51 543 63 949 98 1410 119 118 5 247
12 285 15 132 10 1162 6 1335 -6 94 -6 174 -9 177 -5 3 3 12 27 19 53 7 27 67
237 134 468 67 231 130 452 141 490 11 39 24 85 30 103 5 17 13 47 18 65 6 17
19 64 29 102 11 39 27 90 35 115 8 25 20 65 27 90 7 25 16 56 20 70 4 14 13
43 19 65 6 22 36 128 67 235 31 107 59 209 64 225 4 17 18 64 30 105 31 108
33 125 18 137 -23 19 -160 87 -247 123 -46 19 -88 42 -92 50 -4 8 -22 59 -39
114 -32 104 -68 166 -121 210 -38 32 -78 49 -179 78 -41 12 -78 27 -82 32 -4
6 -8 160 -8 343 l0 332 57 43 c177 134 155 378 -40 471 -29 14 -60 36 -69 49
-39 59 -135 141 -212 180 -23 12 -75 33 -116 48 l-75 27 -5 519 c-4 368 -8
527 -17 545 -18 41 -71 97 -118 124 -46 27 -139 40 -190 26z"/>
<path d="M10915 17724 c-192 -27 -372 -178 -416 -350 -5 -19 -13 -49 -18 -66
-6 -18 -15 -50 -20 -70 -6 -21 -15 -53 -20 -70 -5 -18 -19 -64 -31 -103 -12
-38 -26 -85 -31 -102 -5 -18 -13 -48 -18 -65 -34 -120 -104 -364 -121 -418
-17 -57 -96 -329 -120 -415 -5 -16 -23 -77 -40 -135 -17 -58 -36 -120 -41
-137 -5 -18 -14 -50 -20 -70 -5 -21 -14 -53 -20 -70 -5 -18 -13 -48 -18 -65
-6 -18 -15 -51 -21 -73 -6 -22 -15 -53 -20 -70 -5 -16 -18 -61 -29 -100 -11
-38 -29 -101 -41 -140 -22 -72 -32 -104 -49 -165 -5 -19 -24 -82 -41 -140 -32
-108 -42 -139 -59 -200 -5 -19 -19 -66 -31 -105 -12 -38 -26 -83 -30 -100 -9
-30 -20 -70 -39 -135 -5 -19 -19 -66 -30 -105 -11 -38 -56 -196 -101 -350 -87
-299 -93 -320 -109 -377 -6 -21 -16 -55 -22 -75 -10 -38 -23 -82 -39 -138 -4
-16 -18 -61 -30 -100 -12 -38 -30 -103 -41 -143 -11 -40 -25 -92 -33 -115 -7
-23 -18 -60 -24 -82 -7 -22 -21 -71 -33 -110 -40 -135 -59 -200 -70 -240 -7
-22 -19 -65 -29 -95 -10 -30 -23 -75 -30 -100 -7 -25 -16 -56 -20 -70 -4 -14
-12 -43 -18 -65 -6 -22 -20 -71 -32 -110 -11 -38 -25 -86 -30 -105 -5 -19 -19
-66 -31 -105 -42 -143 -59 -201 -70 -240 -6 -22 -15 -51 -19 -65 -4 -14 -13
-43 -19 -65 -13 -47 -49 -169 -61 -205 -4 -14 -12 -43 -18 -65 -13 -48 -46
-167 -73 -255 -10 -36 -24 -81 -29 -100 -13 -46 -49 -168 -60 -200 -4 -14 -13
-45 -20 -70 -7 -25 -16 -56 -20 -70 -11 -32 -47 -155 -60 -200 -5 -19 -21 -75
-36 -125 -14 -49 -30 -106 -35 -125 -13 -44 -27 -96 -39 -135 -5 -16 -18 -61
-29 -100 -11 -38 -34 -117 -51 -175 -18 -58 -35 -118 -40 -135 -23 -83 -82
-286 -96 -330 -9 -27 -20 -65 -25 -82 -5 -18 -13 -48 -18 -65 -5 -18 -19 -67
-30 -108 -11 -41 -29 -106 -41 -145 -21 -67 -25 -82 -49 -165 -5 -19 -14 -51
-20 -70 -5 -19 -15 -53 -21 -75 -19 -69 -28 -98 -50 -170 -12 -38 -25 -83 -30
-100 -4 -16 -15 -52 -24 -80 -8 -27 -22 -77 -31 -110 -16 -57 -23 -83 -44
-157 -5 -18 -24 -80 -41 -138 -17 -58 -35 -118 -40 -135 -5 -16 -23 -77 -40
-135 -17 -58 -36 -120 -41 -137 -5 -18 -14 -50 -20 -70 -5 -21 -14 -51 -19
-68 -13 -43 -50 -174 -61 -215 -6 -19 -14 -50 -20 -67 -11 -39 -25 -90 -38
-135 -5 -18 -24 -80 -41 -138 -17 -58 -36 -121 -41 -140 -18 -64 -27 -94 -49
-165 -12 -38 -26 -85 -31 -102 -5 -18 -13 -48 -18 -65 -6 -18 -18 -65 -28
-104 -10 -40 -22 -72 -28 -73 -7 -1 -10 434 -10 1287 l0 1287 79 5 79 5 19 65
c11 36 23 79 28 95 5 17 41 140 80 275 39 135 75 259 80 275 5 17 29 101 54
187 25 86 46 162 46 167 0 7 -63 12 -172 13 l-173 3 0 700 0 700 34 70 c55
112 152 197 270 234 19 6 70 11 115 11 140 0 223 -36 315 -136 38 -41 62 -61
65 -53 2 8 9 32 15 54 6 22 32 112 57 200 25 88 49 174 54 190 5 17 23 77 40
135 17 58 35 119 40 135 5 17 22 77 40 135 75 252 75 245 14 254 -76 10 -1263
7 -1459 -4 -729 -41 -1028 -66 -1500 -126 -214 -27 -268 -35 -445 -64 -33 -5
-87 -14 -120 -20 -33 -5 -86 -14 -117 -20 -302 -49 -418 -79 -510 -131 -168
-96 -268 -308 -235 -501 34 -198 191 -365 376 -399 33 -6 67 -13 74 -15 9 -3
12 -147 12 -679 l0 -675 -296 0 c-321 0 -352 -4 -461 -52 -50 -22 -137 -85
-179 -130 -96 -100 -138 -208 -138 -353 -1 -168 44 -275 166 -395 99 -97 197
-141 338 -149 l95 -6 0 -1485 0 -1485 -35 -2 c-88 -7 -188 -27 -235 -49 -113
-51 -218 -151 -274 -260 -46 -88 -51 -137 -51 -459 0 -167 -3 -310 -6 -319 -5
-13 -25 -16 -113 -16 -123 0 -221 -23 -315 -73 -116 -62 -190 -148 -243 -282
-24 -62 -27 -83 -26 -185 0 -129 16 -189 74 -286 67 -112 214 -214 349 -243
42 -9 837 -11 3345 -9 l3290 3 42 78 c50 94 79 133 153 207 118 118 232 190
377 238 153 51 166 52 586 54 220 2 400 6 403 9 2 3 -9 12 -24 20 -27 14 -146
86 -319 192 -91 56 -122 74 -213 125 -172 95 -247 150 -342 248 -193 199 -299
467 -297 752 0 53 6 130 13 170 8 42 9 75 4 78 -5 3 -138 5 -296 4 -158 -1
-331 -2 -384 -1 l-98 1 0 955 c0 630 -3 955 -10 955 -5 0 -10 -7 -10 -16 0 -8
-16 -70 -36 -137 -20 -67 -39 -135 -44 -152 -5 -16 -23 -77 -40 -135 -30 -100
-36 -120 -59 -200 -42 -148 -52 -183 -71 -245 -12 -38 -29 -99 -40 -135 -41
-145 -59 -208 -80 -275 -12 -38 -26 -86 -31 -105 -12 -43 -18 -61 -63 -220
-20 -69 -41 -143 -47 -165 -25 -88 -34 -110 -45 -120 -12 -11 -589 -13 -600
-2 -3 3 3 32 14 64 11 32 25 78 32 103 7 25 16 56 20 70 4 14 13 43 19 65 6
22 20 69 30 105 11 36 34 112 51 170 17 58 35 116 39 130 5 14 14 45 21 70 7
25 16 56 20 70 4 14 13 45 20 70 7 25 16 56 20 70 18 58 50 169 64 220 8 30
26 96 40 145 15 50 31 108 37 130 7 22 19 65 29 95 9 30 27 89 40 130 12 41
26 86 30 100 4 14 13 45 20 70 7 25 16 56 20 70 18 57 50 168 64 220 8 30 33
118 56 195 23 77 46 155 51 173 5 17 13 47 18 65 13 43 29 100 40 140 5 17 15
52 23 77 8 25 20 63 26 85 7 22 21 72 32 110 12 39 26 88 32 110 16 60 30 107
39 135 5 14 40 138 79 275 39 138 84 293 100 345 16 52 55 183 86 290 83 291
89 312 104 365 6 22 15 55 21 73 12 41 26 92 40 140 20 73 28 98 49 167 19 61
34 114 70 240 23 81 52 182 69 243 11 37 38 130 61 207 23 77 48 165 56 195
27 98 75 264 93 320 24 71 43 139 71 250 21 81 31 94 80 102 604 92 1093 82
1625 -33 149 -32 489 -138 590 -184 58 -26 125 -56 193 -86 95 -42 191 -91
201 -103 7 -9 4 -34 -10 -82 -11 -38 -25 -84 -30 -101 -5 -18 -13 -49 -19 -68
-12 -41 -27 -96 -41 -145 -17 -62 -39 -213 -39 -275 0 -121 35 -267 92 -380
163 -324 664 -685 1293 -930 222 -87 331 -122 475 -154 25 -5 65 -14 90 -20
311 -69 734 -98 1105 -75 219 13 243 16 385 35 352 48 470 82 557 162 88 81
114 134 168 343 19 74 62 230 95 347 60 211 75 265 91 322 5 17 18 62 29 100
77 269 116 406 146 515 18 69 42 154 53 190 30 104 61 212 73 255 5 22 14 51
19 65 4 14 35 122 69 240 33 118 65 231 70 250 5 19 21 76 36 125 14 50 32
115 40 145 8 30 33 118 55 195 21 77 44 156 49 175 5 19 19 67 30 105 12 39
25 86 30 105 6 19 32 116 60 215 28 99 55 198 61 220 6 22 15 51 19 65 4 14
13 45 20 70 7 25 16 56 20 70 43 136 45 149 45 255 0 101 -2 115 -29 168 -33
66 -103 134 -173 167 -56 27 -162 32 -283 12 -41 -6 -113 -16 -160 -23 -108
-14 -552 -15 -650 -1 -41 6 -115 16 -165 22 -203 26 -400 72 -625 146 -74 24
-144 48 -155 53 -48 22 -165 64 -168 60 -3 -4 -26 -81 -64 -214 -8 -27 -19
-63 -23 -80 -5 -16 -13 -46 -19 -65 -9 -34 -43 -152 -62 -217 -11 -39 -26 -91
-38 -135 -5 -18 -23 -80 -41 -138 -27 -92 -46 -157 -80 -275 -13 -48 -50 -177
-61 -212 -12 -43 -26 -94 -40 -140 -5 -21 -14 -53 -20 -70 -23 -82 -29 -103
-49 -173 -26 -89 -35 -122 -49 -172 -6 -21 -16 -55 -22 -75 -5 -21 -14 -51
-19 -68 -5 -16 -13 -46 -19 -65 -5 -19 -19 -66 -31 -105 -22 -72 -24 -79 -59
-200 -11 -38 -31 -108 -45 -155 -14 -47 -32 -110 -40 -140 -8 -30 -29 -102
-46 -160 -17 -58 -40 -138 -51 -178 -11 -40 -25 -92 -33 -115 -7 -23 -19 -62
-26 -87 -64 -225 -133 -348 -264 -473 -178 -169 -462 -276 -731 -277 -96 0
-230 21 -248 39 -14 14 -15 13 68 40 403 130 656 315 769 563 33 72 45 108
106 323 28 99 55 191 59 205 5 14 14 45 21 70 7 25 17 59 21 75 5 17 23 80 39
140 17 61 39 139 49 175 11 36 29 99 41 140 12 41 26 86 30 100 4 14 13 43 19
65 6 22 27 96 47 165 19 69 42 150 50 180 8 30 26 93 40 140 14 47 30 101 35
120 6 19 14 49 19 65 5 17 13 46 19 65 25 91 162 569 170 595 8 25 51 175 121
425 24 85 63 220 81 280 11 36 27 89 35 118 21 79 45 163 55 200 5 17 13 47
18 65 5 17 16 57 24 87 9 30 26 91 38 135 27 95 33 278 11 360 -46 168 -131
317 -259 450 -257 267 -601 497 -998 665 -66 28 -129 55 -140 60 -123 55 -451
147 -670 188 -301 56 -434 67 -800 66 -246 -1 -364 -5 -465 -18 -251 -31 -400
-53 -423 -61 -28 -11 -29 15 -2 108 15 50 30 129 32 174 19 286 -185 519 -470
537 -40 2 -85 2 -102 0z m-4823 -6382 c113 -55 192 -153 233 -288 12 -41 15
-156 15 -722 l0 -672 -432 2 -433 3 0 680 c0 633 1 683 18 730 55 150 148 243
292 294 17 6 77 9 135 8 97 -2 112 -5 172 -35z m6 -4255 l2 -1487 -537 2 -538
3 -3 1465 c-1 806 0 1475 3 1488 l5 22 533 -2 532 -3 3 -1488z"/>
<path d="M10620 11534 c-8 -1 -45 -6 -82 -9 l-66 -6 -16 -52 c-9 -29 -21 -70
-27 -92 -6 -22 -15 -51 -20 -65 -5 -14 -16 -52 -25 -85 -15 -57 -21 -79 -43
-157 -5 -18 -33 -112 -61 -208 -28 -96 -56 -191 -61 -210 -17 -61 -65 -226
-79 -275 -5 -16 -14 -48 -20 -70 -18 -64 -26 -94 -60 -205 -17 -58 -38 -130
-46 -160 -8 -30 -35 -125 -61 -210 -25 -85 -49 -168 -53 -185 -5 -16 -23 -77
-40 -135 -33 -110 -42 -139 -60 -205 -6 -22 -15 -55 -21 -72 -5 -18 -14 -50
-20 -70 -10 -38 -23 -82 -39 -138 -4 -16 -18 -61 -30 -100 -12 -38 -26 -85
-31 -102 -15 -55 -27 -97 -34 -120 l-7 -23 383 -2 384 -3 3 -1212 c1 -667 5
-1213 8 -1213 3 0 24 19 47 41 132 130 356 252 538 293 26 6 39 21 78 88 10
18 51 89 91 158 40 69 80 139 90 155 9 17 32 55 50 85 32 54 54 91 93 160 10
19 27 46 36 60 42 63 41 52 44 730 l2 655 100 6 c56 3 122 13 150 23 114 41
238 155 293 268 47 97 55 134 55 248 -1 89 -5 116 -27 175 -68 177 -194 298
-366 348 -19 6 -179 13 -355 16 l-320 6 -3 655 c-1 360 0 665 3 678 4 17 12
22 39 22 50 0 154 38 215 78 58 39 125 117 161 188 24 49 53 161 46 179 -6 17
-104 37 -301 60 -104 13 -489 19 -535 9z"/>
<path d="M12710 8569 c-125 -18 -212 -62 -311 -159 -128 -126 -176 -251 -166
-430 7 -125 39 -208 121 -315 6 -8 -12 -49 -54 -121 -34 -60 -72 -125 -83
-144 -11 -19 -28 -48 -37 -65 -10 -16 -41 -70 -70 -120 -29 -49 -60 -103 -70
-120 -17 -30 -79 -136 -173 -295 -48 -83 -63 -108 -104 -180 -98 -170 -144
-248 -193 -330 -69 -114 -125 -211 -193 -330 l-25 -45 -69 3 c-37 2 -103 -4
-146 -12 -170 -33 -286 -115 -378 -267 -70 -116 -82 -159 -83 -294 -1 -79 4
-132 13 -155 54 -142 116 -207 291 -309 69 -41 145 -86 170 -101 25 -15 74
-44 110 -65 225 -131 305 -178 385 -225 90 -52 124 -72 190 -110 62 -36 98
-57 190 -110 50 -29 104 -60 120 -70 17 -10 71 -41 120 -70 50 -29 106 -61
125 -72 19 -11 40 -24 45 -28 39 -29 197 -105 243 -116 230 -55 487 69 603
290 48 92 62 150 62 261 0 133 -23 207 -94 312 -16 23 -29 49 -29 57 0 22 250
436 263 436 6 0 142 -86 302 -192 530 -350 1541 -1019 2029 -1342 522 -346
532 -353 622 -396 94 -47 166 -62 284 -62 153 0 259 33 387 120 330 225 392
709 128 1000 -80 88 -168 144 -453 289 -136 69 -283 145 -327 168 -44 24 -188
98 -320 165 -132 67 -289 148 -350 180 -60 32 -189 98 -285 148 -96 49 -236
121 -310 159 -74 39 -216 112 -315 163 -99 51 -227 117 -285 148 -58 30 -186
96 -285 147 -286 148 -310 161 -313 176 -1 8 23 57 54 109 58 96 75 127 134
235 48 88 42 84 124 78 163 -12 338 61 450 189 44 50 113 176 135 247 6 19 11
79 11 135 0 82 -5 114 -25 169 -29 81 -28 78 -78 145 -33 44 -141 132 -161
132 -2 0 -44 23 -93 51 -48 28 -103 60 -120 70 -18 11 -48 27 -65 38 -133 76
-214 124 -223 131 -11 8 -57 35 -145 83 -30 16 -59 33 -65 37 -5 4 -26 17 -45
28 -19 11 -75 43 -125 72 -175 102 -407 237 -497 289 -18 10 -58 33 -88 51
-141 84 -180 104 -225 118 -50 14 -142 32 -158 31 -7 -1 -41 -5 -77 -10z"/>
<path d="M10510 3401 c-100 -20 -205 -108 -258 -216 -27 -53 -33 -79 -38 -157
-9 -148 3 -135 -121 -140 -85 -4 -117 -9 -148 -26 -72 -38 -107 -78 -132 -152
-17 -48 -18 -448 -1 -487 28 -63 63 -104 117 -136 l56 -32 1825 0 c1716 0
1827 1 1862 17 56 27 103 73 127 123 19 41 21 62 21 274 0 247 -4 268 -56 330
-14 17 -46 43 -71 58 -39 23 -60 27 -157 32 l-111 6 -6 90 c-8 109 -14 133
-52 209 -38 74 -109 144 -184 182 l-58 29 -1290 1 c-709 1 -1306 -1 -1325 -5z"/>
</g>
</svg>
